<svg xmlns="http://www.w3.org/2000/svg" viewBox="0 0 100 100">
  <g stroke="#06B6D4" stroke-width="3" stroke-linecap="round">
    <line x1="50" y1="50" x2="50" y2="14" />
    <line x1="50" y1="50" x2="50" y2="86" />
    <line x1="50" y1="50" x2="81.2" y2="32" />
    <line x1="50" y1="50" x2="81.2" y2="68" />
    <line x1="50" y1="50" x2="18.8" y2="32" />
    <line x1="50" y1="50" x2="18.8" y2="68" />
  </g>

  <polygon points="28,50 39,31 61,31 72,50 61,69 39,69" fill="#3B82F6" />

  <g fill="#06B6D4">
    <circle cx="50" cy="14" r="6" />
    <circle cx="50" cy="86" r="6" />
    <circle cx="81.2" cy="32" r="6" />
    <circle cx="81.2" cy="68" r="6" />
    <circle cx="18.8" cy="32" r="6" />
    <circle cx="18.8" cy="68" r="6" />
  </g>

  <g stroke="#FFFFFF" stroke-width="3" stroke-linecap="round">
    <line x1="50" y1="14" x2="50" y2="19" />
    <line x1="50" y1="86" x2="50" y2="81" />
    <line x1="81.2" y1="32" x2="76.8" y2="34.5" />
    <line x1="81.2" y1="68" x2="76.8" y2="65.5" />
    <line x1="18.8" y1="32" x2="23.2" y2="34.5" />
    <line x1="18.8" y1="68" x2="23.2" y2="65.5" />
  </g>
</svg>
